<svg width="70" height="70" viewBox="0 0 70 70" fill="none" xmlns="http://www.w3.org/2000/svg">
<path fill-rule="evenodd" clip-rule="evenodd" d="M67.937 0.190354C68.3594 -0.0595679 68.8839 -0.0636695 69.3103 0.17969C69.7368 0.422913 70.0001 0.876272 70.0001 1.36723V55.0977C70.0001 55.5311 69.7944 55.9389 69.4459 56.1968C69.2078 56.373 68.922 56.4649 68.6327 56.4649C68.4988 56.4649 68.3641 56.4451 68.2328 56.405L49.2555 50.5991L39.1664 60.4593C38.906 60.714 38.561 60.8488 38.2106 60.8488C38.0318 60.8488 37.8518 60.8136 37.6804 60.7416C37.4067 60.6265 37.1873 60.427 37.0409 60.1828C37.0312 60.1704 37.0217 60.1564 37.0126 60.1399L28.2384 44.1694L8.35003 38.0848C7.83214 37.9264 7.45658 37.4771 7.39245 36.9391C7.32833 36.4011 7.58796 35.8763 8.05417 35.6005L32.4556 21.1714C33.1056 20.7869 33.9441 21.0025 34.3282 21.6523C34.7126 22.3023 34.4972 23.1406 33.8473 23.5251L12.1138 36.3767L28.7672 41.4716L62.2504 6.72961L44.2744 17.3594C43.6243 17.7435 42.7859 17.5282 42.4018 16.8784C42.0174 16.2284 42.2328 15.3901 42.8827 15.0057L67.937 0.190354ZM36.8439 45.7904C36.8439 45.5122 36.9288 45.2407 37.0871 45.012L57.3651 15.7391L30.8524 43.2483L36.8439 54.1537V45.7904ZM39.5782 56.2337V47.6386L46.2761 49.6877L39.5782 56.2337ZM40.4006 45.0307L67.2657 53.2497V6.24864L40.4006 45.0307Z" fill="#0F4C81"/>
<path d="M22.4798 47.5205C21.9458 46.9866 21.0804 46.9866 20.5462 47.5205L7.78323 60.2835C7.24934 60.8174 7.24934 61.6831 7.78323 62.2171C8.05038 62.484 8.40024 62.6174 8.7501 62.6174C9.09997 62.6174 9.44983 62.484 9.71684 62.217L22.4798 49.454C23.0137 48.9203 23.0137 48.0546 22.4798 47.5205Z" fill="#0F4C81"/>
<path d="M5.47842 64.5213C4.9444 63.9877 4.07897 63.9877 3.54495 64.5214L0.400415 67.666C-0.133472 68.1998 -0.133472 69.0655 0.400415 69.5996C0.667427 69.8664 1.01729 69.9999 1.36715 69.9999C1.71702 69.9999 2.06688 69.8663 2.33389 69.5994L5.47842 66.4549C6.01231 65.921 6.01231 65.0553 5.47842 64.5213Z" fill="#0F4C81"/>
<path d="M19.5028 67.5856C19.2487 67.3313 18.8959 67.1851 18.5364 67.1851C18.1753 67.1851 17.8241 67.3313 17.5698 67.5856C17.3155 67.8399 17.1692 68.1913 17.1692 68.5522C17.1692 68.9118 17.3153 69.2646 17.5698 69.5188C17.8241 69.7731 18.1768 69.9194 18.5364 69.9194C18.8959 69.9194 19.2487 69.7731 19.5028 69.5188C19.7571 69.2646 19.9036 68.9118 19.9036 68.5522C19.9036 68.1913 19.7573 67.8399 19.5028 67.5856Z" fill="#0F4C81"/>
<path d="M29.6749 57.4131C29.1413 56.8792 28.2759 56.8792 27.7414 57.4131L20.9812 64.1732C20.4473 64.7071 20.4473 65.5728 20.9812 66.1066C21.2482 66.3737 21.5981 66.5071 21.948 66.5071C22.2978 66.5071 22.6477 66.3735 22.9147 66.1066L29.6749 59.3466C30.2088 58.8127 30.2088 57.947 29.6749 57.4131Z" fill="#0F4C81"/>
<path d="M53.0065 56.894C52.4724 56.3602 51.607 56.3602 51.073 56.894L44.2945 63.6725C43.7606 64.2064 43.7606 65.0721 44.2945 65.6061C44.5615 65.873 44.9113 66.0065 45.2612 66.0065C45.6111 66.0065 45.9609 65.873 46.2279 65.6061L53.0065 58.8276C53.5403 58.2937 53.5403 57.428 53.0065 56.894Z" fill="#0F4C81"/>
<path d="M38.7598 18.6359C38.5055 18.3816 38.1528 18.2354 37.7932 18.2354C37.4336 18.2354 37.0809 18.3816 36.8266 18.6359C36.5725 18.8902 36.426 19.243 36.426 19.6039C36.426 19.9635 36.5723 20.3148 36.8266 20.5691C37.0809 20.8248 37.4336 20.9697 37.7932 20.9697C38.1528 20.9697 38.5055 20.8248 38.7598 20.5691C39.014 20.3148 39.1604 19.9635 39.1604 19.6039C39.1604 19.243 39.0141 18.8902 38.7598 18.6359Z" fill="#0F4C81"/>
</svg>
