<svg width="57" height="70" viewBox="0 0 57 70" fill="none" xmlns="http://www.w3.org/2000/svg">
<path fill-rule="evenodd" clip-rule="evenodd" d="M17.8156 19.333C16.3379 19.333 15.1357 18.1303 15.1357 16.6526C15.1357 15.1748 16.3379 13.9727 17.8156 13.9727C19.2934 13.9727 20.4955 15.1748 20.4955 16.6526C20.4955 18.1308 19.2934 19.333 17.8156 19.333ZM17.8156 17.2822C18.1628 17.2822 18.4448 16.9997 18.4448 16.6526C18.4448 16.306 18.1628 16.0234 17.8156 16.0234C17.4685 16.0234 17.1865 16.306 17.1865 16.6526C17.1865 16.9997 17.4685 17.2822 17.8156 17.2822Z" fill="#0F4C81"/>
<path fill-rule="evenodd" clip-rule="evenodd" d="M2.83958 70H26.07C26.6367 70 27.0959 69.5407 27.0959 68.9746C27.0959 68.408 26.6367 67.9492 26.07 67.9492H2.83958C2.40486 67.9492 2.05078 67.5951 2.05078 67.1604V65.7249C2.05078 65.2901 2.40486 64.9366 2.83958 64.9366H54.0867C54.5214 64.9366 54.875 65.2901 54.875 65.7249V67.1604C54.875 67.5951 54.5214 67.9492 54.0867 67.9492H30.8557C30.2891 67.9492 29.8303 68.408 29.8303 68.9746C29.8303 69.5407 30.2891 70 30.8557 70H54.0862C55.652 70 56.9257 68.7263 56.9257 67.1604V65.7249C56.9257 64.1595 55.652 62.8853 54.0862 62.8853H53.8271V59.2996C53.8271 57.5671 52.4172 56.1578 50.6853 56.1578H47.8062V53.7123C47.8062 52.2688 46.6312 51.0938 45.1877 51.0938H43.9075L43.0605 34.9461C43.0306 34.3805 42.5457 33.9463 41.9828 33.9757C41.4172 34.0056 40.9825 34.4878 41.0124 35.0534L41.8541 51.0938H14.9531C15.9144 47.1621 17.8642 43.5887 20.7604 40.4565C25.3555 35.4865 24.0572 29.6172 23.286 27.324C22.8726 26.0962 21.2688 25.7944 20.4346 26.7825C19.3761 28.0364 17.9993 27.8922 15.8578 27.5061C14.8532 27.3245 13.9053 27.1536 13.0107 27.2754C11.5068 27.4794 8.00446 28.5625 7.39349 30.4498C7.23328 30.9438 6.65489 31.1462 6.23993 30.8424L3.15094 28.578C2.28096 27.9403 2.18536 26.6762 2.94746 25.9141L7.26479 21.5968C8.19084 20.6702 8.7014 19.4386 8.7014 18.1286C8.7014 17.3878 8.98338 16.6861 9.49661 16.1515L15.618 9.77539C16.4698 8.88779 16.7438 7.61566 16.3326 6.45569L14.7747 2.0652C18.4613 2.27776 21.1909 4.71786 22.2318 5.80521C22.7754 6.37344 23.5146 6.72112 24.3135 6.7852C30.4007 7.27013 34.9268 9.72893 37.7664 14.0927C39.8279 17.2602 40.2247 20.3545 40.2546 20.6093L40.7614 30.2677C40.7908 30.8333 41.2725 31.2664 41.8391 31.2381C42.4047 31.2087 42.8389 30.7259 42.809 30.1604L42.3011 20.4736C42.3006 20.4667 42.3001 20.4599 42.2996 20.4531C42.299 20.4447 42.2982 20.4365 42.2974 20.4282C42.2835 20.2803 41.9193 16.7577 39.5384 13.0556C37.3386 9.63493 32.9396 5.41481 24.4769 4.7403C24.18 4.7168 23.9087 4.59129 23.7138 4.38728C22.4406 3.05801 18.997 0 14.2604 0C12.8259 0 12.2833 1.17813 12.6059 2.08656L14.3998 7.14195C14.5499 7.56599 14.45 8.03116 14.1386 8.35533L8.01674 14.732C7.13554 15.65 6.65062 16.8559 6.65062 18.1286C6.65062 18.8912 6.35368 19.6079 5.81429 20.1468L1.49696 24.4646C-0.154877 26.1165 0.0571443 28.8525 1.93863 30.2325L5.02708 32.4963C6.58333 33.6376 8.75961 32.8878 9.34441 31.0822C9.51797 30.547 11.5858 29.5387 13.2868 29.3075C13.8588 29.2302 14.6504 29.3726 15.4887 29.5234L15.4935 29.5243C17.2837 29.8474 19.6816 30.28 21.5332 28.594C22.2552 31.1292 22.6718 35.3685 19.2549 39.0642C15.9993 42.5858 13.8476 46.6291 12.8484 51.0944H11.7386C10.2945 51.0944 9.1201 52.2688 9.1201 53.7128V56.1578H6.241C4.50851 56.1578 3.09914 57.5671 3.09914 59.2996V62.8858H2.83958C1.27373 62.8858 0 64.1595 0 65.7254V67.1609C0 68.7263 1.27373 70 2.83958 70ZM11.1709 53.7123C11.1709 53.3999 11.4256 53.1451 11.7381 53.1451H45.1877C45.5006 53.1451 45.7549 53.3999 45.7549 53.7123V56.1578H11.1709V53.7123ZM6.241 58.2085C5.63911 58.2085 5.14992 58.6983 5.14992 59.2996V62.8858H51.7758V59.2996C51.7758 58.6983 51.2866 58.2085 50.6853 58.2085H6.241Z" fill="#0F4C81"/>
</svg>
