<svg width="70" height="70" viewBox="0 0 70 70" fill="none" xmlns="http://www.w3.org/2000/svg">
<path d="M31.7849 53.3648C31.2514 53.8978 31.2514 54.7635 31.7849 55.2976C32.3195 55.8311 33.1847 55.8311 33.7177 55.2976C34.2523 54.7635 34.2523 53.8978 33.7177 53.3648C33.1847 52.8302 32.3195 52.8302 31.7849 53.3648Z" fill="#0F4C81"/>
<path fill-rule="evenodd" clip-rule="evenodd" d="M56.4644 42.1639L66.8444 50.9902C70.4567 53.3636 70.9924 58.467 67.9232 61.5368L64.1073 65.3521C58.2578 71.2022 49.9932 70.8524 42.2238 68.0139C34.3742 65.1454 25.8117 59.3263 18.1137 51.6284C10.5937 44.1084 4.88033 35.7712 2.02633 28.1534C-1.30566 19.2603 -0.516318 12.0099 4.30836 7.18469L8.35438 3.13867C8.35545 3.13814 8.35651 3.13707 8.35705 3.136L9.49032 2.00273C12.5734 -1.07985 17.7105 -0.527097 20.0689 3.13173L27.565 13.5485C27.5799 13.5699 27.5943 13.5913 27.6082 13.6131C29.3418 16.3363 28.9583 19.8328 26.6752 22.1159L21.0163 27.7764C20.6233 28.1684 20.5074 28.7521 20.7194 29.2648C20.7579 29.3572 20.7851 29.4517 20.8022 29.5468C20.9459 29.9911 22.0353 33.1447 25.0576 37.1133C29.0208 42.3177 34.2706 46.2975 40.6611 48.9411C41.1738 49.1525 41.7586 49.0367 42.1506 48.6441L47.81 42.9852C50.0931 40.7027 53.5896 40.3187 56.3128 42.0522C56.3656 42.0859 56.4164 42.1233 56.4644 42.1639ZM65.1413 53.1307L54.7704 44.3118C53.1469 43.3254 51.0918 43.5695 49.7433 44.9185L48.0178 46.6435L65.7063 59.8871L65.9893 59.6035C67.8431 57.7503 67.5077 54.6528 65.2924 53.2424C65.2395 53.2087 65.1888 53.1713 65.1413 53.1307ZM17.7848 4.63404C17.7987 4.65593 17.8131 4.67783 17.828 4.69866L25.3209 15.1117C26.3388 16.7411 26.1032 18.8213 24.7419 20.1826L23.0698 21.8553L11.1026 4.25699L11.4236 3.93602C13.2848 2.07483 16.3797 2.42678 17.7848 4.63404ZM20.047 49.6951C27.4694 57.1175 35.6784 62.7112 43.1616 65.4456C48.837 67.5193 56.7421 68.8513 62.174 63.4188L63.7532 61.8402L46.0647 48.5966L44.0839 50.5779C42.9068 51.7545 41.1535 52.1037 39.616 51.4677C30.8665 47.8478 25.5158 42.3369 22.5678 38.3507C20.5645 35.642 18.5789 31.966 18.1474 30.1951C17.5743 28.6848 17.9354 26.9886 19.0836 25.8425L21.1018 23.8233L9.13464 6.22499L6.24165 9.11852C1.17451 14.1851 2.54437 21.7447 4.58607 27.1942C7.30602 34.4542 12.7967 42.4453 20.047 49.6951Z" fill="#0F4C81"/>
<path d="M29.2193 50.1005C27.7752 48.8342 25.2774 46.6563 23.962 45.303C20.7363 41.9881 17.352 37.9699 15.3397 35.0668C14.9098 34.4462 14.0579 34.2913 13.4374 34.7218C12.8168 35.1517 12.6625 36.0035 13.0924 36.6241C15.6302 40.2856 19.359 44.4929 22.0021 47.2091C23.3906 48.6382 25.9098 50.8353 27.4163 52.1561C27.983 52.6527 28.8465 52.5983 29.3459 52.0295C29.8436 51.4623 29.787 50.5982 29.2193 50.1005Z" fill="#0F4C81"/>
</svg>
