<svg width="55" height="70" viewBox="0 0 55 70" fill="none" xmlns="http://www.w3.org/2000/svg">
<path fill-rule="evenodd" clip-rule="evenodd" d="M41.2394 0.30014L54.5241 13.5848C54.7057 13.7664 54.8242 14.0249 54.8242 14.3101V32.6074C54.8242 33.1735 54.3649 33.6328 53.7988 33.6328C53.2322 33.6328 52.7734 33.1735 52.7734 32.6074V15.3355H42.6333C40.8992 15.3355 39.4888 13.9245 39.4888 12.1909V2.05078H3.14453C2.54158 2.05078 2.05078 2.54158 2.05078 3.14453V66.8555C2.05078 67.4584 2.54158 67.9492 3.14453 67.9492H25.0195C25.5856 67.9492 26.0449 68.408 26.0449 68.9746C26.0449 69.5412 25.5856 70 25.0195 70H3.14453C1.41045 70 0 68.5896 0 66.8555V3.14453C0 1.41045 1.41045 0 3.14453 0H40.5141C40.7951 0 41.0583 0.119629 41.2394 0.30014ZM41.5395 12.1909C41.5395 12.7939 42.0303 13.2841 42.6333 13.2841H51.3229L41.5395 3.50128V12.1909Z" fill="#0F4C81"/>
<path fill-rule="evenodd" clip-rule="evenodd" d="M37.8349 44.2786C47.5809 34.5508 40.6024 17.8145 26.8878 17.8145C18.3434 17.8145 11.3921 24.7663 11.3921 33.3107C11.3921 41.8551 18.3434 48.8069 26.8878 48.8069C30.9568 48.8069 34.8912 47.2165 37.8349 44.2786ZM40.2948 32.2853H27.9137V19.9042C33.8802 20.277 39.6704 25.107 40.2948 32.2853ZM29.3605 34.3361L37.0797 42.0703C38.9404 39.9084 40.0758 37.2141 40.2948 34.3361H29.3605ZM35.6276 43.5192C34.794 44.2337 33.8716 44.8484 32.8804 45.3441L29.7471 37.6269L35.6276 43.5192ZM25.8629 19.9042C18.9266 20.4297 13.4429 26.2419 13.4429 33.3107C13.4429 40.7245 19.4745 46.7556 26.8883 46.7556C28.3148 46.7556 29.69 46.5318 30.9813 46.1179L25.9446 33.7123C25.8885 33.5782 25.8629 33.4394 25.8629 33.3107V19.9042Z" fill="#0F4C81"/>
<path d="M12.3457 53.6724H11.3711C10.8045 53.6724 10.3457 54.1311 10.3457 54.6978C10.3457 55.2639 10.8045 55.7231 11.3711 55.7231H12.3457C12.9118 55.7231 13.3711 55.2639 13.3711 54.6978C13.3711 54.1311 12.9118 53.6724 12.3457 53.6724Z" fill="#0F4C81"/>
<path d="M24.0401 53.6724H16.2439C15.6773 53.6724 15.2185 54.1311 15.2185 54.6978C15.2185 55.2639 15.6773 55.7231 16.2439 55.7231H24.0401C24.6067 55.7231 25.0655 55.2639 25.0655 54.6978C25.0655 54.1311 24.6067 53.6724 24.0401 53.6724Z" fill="#0F4C81"/>
<path d="M30.7864 11.0887C31.353 11.0887 31.8118 10.6294 31.8118 10.0627C31.8118 9.49664 31.353 9.03735 30.7864 9.03735H22.9902C22.4236 9.03735 21.9648 9.49664 21.9648 10.0627C21.9648 10.6294 22.4236 11.0887 22.9902 11.0887H30.7864Z" fill="#0F4C81"/>
<path d="M12.3457 58.155H11.3711C10.8045 58.155 10.3457 58.6138 10.3457 59.1804C10.3457 59.7465 10.8045 60.2058 11.3711 60.2058H12.3457C12.9118 60.2058 13.3711 59.7465 13.3711 59.1804C13.3711 58.6138 12.9118 58.155 12.3457 58.155Z" fill="#0F4C81"/>
<path d="M24.0401 58.155H16.2439C15.6773 58.155 15.2185 58.6138 15.2185 59.1804C15.2185 59.7465 15.6773 60.2058 16.2439 60.2058H24.0401C24.6067 60.2058 25.0655 59.7465 25.0655 59.1804C25.0655 58.6138 24.6067 58.155 24.0401 58.155Z" fill="#0F4C81"/>
<path d="M29.7358 53.6724C29.1697 53.6724 28.7104 54.1311 28.7104 54.6978C28.7104 55.2639 29.1697 55.7231 29.7358 55.7231H30.7105C31.2771 55.7231 31.7359 55.2639 31.7359 54.6978C31.7359 54.1311 31.2771 53.6724 30.7105 53.6724H29.7358Z" fill="#0F4C81"/>
<path d="M42.4053 53.6724H34.6086C34.0425 53.6724 33.5833 54.1311 33.5833 54.6978C33.5833 55.2639 34.0425 55.7231 34.6086 55.7231H42.4053C42.9715 55.7231 43.4307 55.2639 43.4307 54.6978C43.4307 54.1311 42.9715 53.6724 42.4053 53.6724Z" fill="#0F4C81"/>
<path d="M29.7358 60.2058H30.7105C31.2771 60.2058 31.7359 59.7465 31.7359 59.1804C31.7359 58.6138 31.2771 58.155 30.7105 58.155H29.7358C29.1697 58.155 28.7104 58.6138 28.7104 59.1804C28.7104 59.7465 29.1697 60.2058 29.7358 60.2058Z" fill="#0F4C81"/>
<path d="M42.4053 58.155H34.6086C34.0425 58.155 33.5833 58.6138 33.5833 59.1804C33.5833 59.7465 34.0425 60.2058 34.6086 60.2058H42.4053C42.9715 60.2058 43.4307 59.7465 43.4307 59.1804C43.4307 58.6138 42.9715 58.155 42.4053 58.155Z" fill="#0F4C81"/>
<path d="M53.7988 36.3672C53.2322 36.3672 52.7734 36.8259 52.7734 37.3926V66.8555C52.7734 67.4584 52.2826 67.9492 51.6797 67.9492H29.8047C29.2381 67.9492 28.7793 68.408 28.7793 68.9746C28.7793 69.5412 29.2381 70 29.8047 70H51.6797C53.4138 70 54.8242 68.5896 54.8242 66.8555V37.3926C54.8242 36.8265 54.3649 36.3672 53.7988 36.3672Z" fill="#0F4C81"/>
</svg>
