<svg width="64" height="70" viewBox="0 0 64 70" fill="none" xmlns="http://www.w3.org/2000/svg">
<path fill-rule="evenodd" clip-rule="evenodd" d="M5.74065 35.9255L0.73226 32.8611C-0.153208 32.3185 -0.152674 30.9657 0.73226 30.4242L5.74065 27.3598C6.63466 26.8124 7.75565 27.488 7.75565 28.578V29.1532H16.9361C18.3086 29.1532 19.4253 30.2699 19.4253 31.6424C19.4253 33.0155 18.3086 34.1322 16.9361 34.1322H7.75565V34.7074C7.75565 35.7942 6.6368 36.474 5.74065 35.9255ZM5.70487 30.1785V29.786L2.67089 31.6424L5.70487 33.4993V33.1068C5.70487 32.5401 6.16363 32.0814 6.73026 32.0814H16.9361C17.178 32.0814 17.3746 31.8843 17.3746 31.6424C17.3746 31.401 17.178 31.2039 16.9361 31.2039H6.73026C6.16363 31.2039 5.70487 30.7452 5.70487 30.1785Z" fill="#0F4C81"/>
<path fill-rule="evenodd" clip-rule="evenodd" d="M55.6665 28.5779C55.6665 27.4884 56.788 26.8123 57.6821 27.3597L62.6899 30.4241C63.5759 30.9662 63.5754 32.319 62.6904 32.861L57.6821 35.9255C56.7875 36.4729 55.6665 35.7962 55.6665 34.7073V34.1321H46.4866C45.1135 34.1321 43.9968 33.0154 43.9968 31.6423C43.9968 30.2698 45.1135 29.1531 46.4866 29.1531H55.6665V28.5779ZM57.7178 33.1062V33.4992L60.7518 31.6423L57.7178 29.7859V30.1785C57.7178 30.7446 57.2585 31.2039 56.6924 31.2039H46.4866C46.2447 31.2039 46.0476 31.4004 46.0476 31.6423C46.0476 31.8843 46.2447 32.0808 46.4866 32.0808H56.6924C57.2585 32.0808 57.7178 32.5401 57.7178 33.1062Z" fill="#0F4C81"/>
<path fill-rule="evenodd" clip-rule="evenodd" d="M43.9193 22.9555C42.9463 23.9285 41.3713 23.928 40.3983 22.9555C39.4257 21.9824 39.4257 20.4075 40.3988 19.4344L46.8903 12.9429L46.4833 12.536C45.7132 11.7659 46.0278 10.4954 47.0468 10.2497L52.7553 8.87556C53.7652 8.63256 54.7212 9.59066 54.4782 10.599L53.104 16.307C52.8584 17.326 51.5878 17.6405 50.8177 16.8709L50.4108 16.464L43.9193 22.9555ZM49.0655 13.6682L41.8488 20.8849C41.6773 21.0558 41.6773 21.3341 41.8488 21.505C42.0202 21.6764 42.2979 21.6764 42.4688 21.505L49.6855 14.2888C50.0861 13.8882 50.7355 13.8882 51.136 14.2888L51.4137 14.5665L52.2458 11.1079L48.7878 11.9405L49.0655 12.2182C49.466 12.6188 49.4655 13.2682 49.0655 13.6682Z" fill="#0F4C81"/>
<path fill-rule="evenodd" clip-rule="evenodd" d="M10.6673 8.87549L16.3758 10.2502C17.3948 10.4953 17.7094 11.7663 16.9393 12.5365L16.5323 12.9434L23.0243 19.4349C23.9947 20.4053 23.9947 21.9845 23.0243 22.9554C22.0534 23.9258 20.4737 23.9258 19.5033 22.9554L13.0118 16.4639L12.6049 16.8703C11.8347 17.6404 10.5642 17.3264 10.3186 16.3069L8.94443 10.5989C8.70143 9.58846 9.65899 8.63303 10.6673 8.87549ZM21.5738 21.5049C21.7447 21.334 21.7447 21.0557 21.5738 20.8848L14.3571 13.6681C13.9566 13.2681 13.9566 12.6187 14.3571 12.2182L14.6348 11.9404L11.1768 11.1079L12.0094 14.5659L12.2866 14.2882C12.6876 13.8882 13.3365 13.8882 13.7371 14.2882L20.9538 21.5049C21.1247 21.6758 21.4024 21.6758 21.5738 21.5049Z" fill="#0F4C81"/>
<path fill-rule="evenodd" clip-rule="evenodd" d="M16.7594 51.3738C16.8714 51.3166 16.9893 51.2709 20.43 49.9378L20.4321 49.937C21.6277 49.4738 23.2242 48.8552 25.3608 48.0268L26.8033 47.4677V45.4847C25.0959 44.1987 24.0209 42.29 23.7085 40.3044C21.7357 40.0907 20.3343 38.4629 20.3343 36.5841C20.3343 35.7366 20.636 34.9365 21.1936 34.2807V31.1869C21.1936 25.3876 25.912 20.6692 31.7113 20.6692C37.5107 20.6692 42.2285 25.3876 42.2285 31.1869V34.2011C42.7802 34.865 43.0883 35.7056 43.0883 36.5841C43.0883 38.4731 41.6774 40.0881 39.7206 40.3038C39.4119 42.3407 38.3304 44.1266 36.787 45.3565V47.4671C39.6419 48.5728 41.6745 49.3592 43.1251 49.9205L43.1283 49.9217C46.6318 51.2773 46.7373 51.3182 46.8368 51.3706L46.8461 51.3755C46.858 51.3819 46.8713 51.389 46.8914 51.3989C47.8441 51.871 51.1606 53.8315 51.1606 58.253V67.2059C51.1606 68.7467 49.9077 70.0001 48.367 70.0001H34.1936C33.627 70.0001 33.1682 69.5408 33.1682 68.9747C33.1682 68.4081 33.627 67.9493 34.1936 67.9493H42.5046V59.774C42.5046 59.2073 42.9634 58.7486 43.53 58.7486C44.0966 58.7486 44.5554 59.2073 44.5554 59.774V67.9493H48.3664C48.7761 67.9493 49.1093 67.6155 49.1093 67.2059V58.253C49.1093 54.6358 46.0289 53.2531 45.8703 53.1842L43.4284 52.2387C41.3247 51.4239 38.577 50.3598 38.01 50.1406L37.3857 50.8039C34.2679 54.1167 29.1553 54.1178 26.0364 50.8039L25.4575 50.1887C24.8947 50.4072 22.2717 51.4241 20.2062 52.2248L20.1825 52.2339L17.7313 53.1842C16.002 53.9292 14.4917 55.8898 14.4917 58.253V67.2059C14.4917 67.6161 14.8255 67.9493 15.2351 67.9493H19.0461V59.774C19.0461 59.2073 19.5049 58.7486 20.0715 58.7486C20.6376 58.7486 21.0969 59.2073 21.0969 59.774V67.9493H29.4079C29.9746 67.9493 30.4339 68.4081 30.4339 68.9747C30.4339 69.5408 29.9746 70.0001 29.4079 70.0001H15.2351C13.6938 70.0001 12.4409 68.7461 12.4409 67.2059V58.253C12.4409 53.8315 15.7574 51.871 16.7102 51.3989C16.731 51.3886 16.7452 51.3811 16.7594 51.3738ZM41.0376 36.5841C41.0376 35.8279 40.5361 35.1779 39.8114 34.9654V38.2028C40.5521 37.986 41.0376 37.3286 41.0376 36.5841ZM23.2444 31.1869C23.2444 26.5182 27.0426 22.72 31.7113 22.72C36.3795 22.72 40.1777 26.5182 40.1777 31.1869V32.9402C40.057 32.9119 39.9347 32.89 39.8103 32.8735C39.7964 32.3747 39.5951 32.105 39.171 31.6259C38.9952 31.4263 38.5265 30.9254 37.9941 30.3567C37.7148 30.0582 37.418 29.7411 37.1368 29.4389C36.5782 28.8381 35.6762 28.7351 34.9984 29.1778C32.5562 30.773 29.6584 31.69 26.8605 31.7845C26.463 31.798 26.1314 31.7849 25.8442 31.7736C25.1057 31.7444 24.6612 31.7269 24.1475 32.2022C23.9402 32.3944 23.7806 32.655 23.6999 32.8948C23.5557 32.9157 23.3539 32.96 23.2444 32.9888V31.1869ZM23.6118 35.0247C22.9239 35.2735 22.3856 35.8674 22.3856 36.5841C22.3856 37.3211 22.8636 37.9844 23.6118 38.2028V35.0247ZM25.6626 39.0995V33.8305C29.1126 33.9854 32.7864 32.991 35.8508 31.0673C36.1983 31.44 36.5004 31.7621 36.7574 32.0362L36.7574 32.0363C37.2692 32.5822 37.6024 32.9375 37.7606 33.1223C37.7606 34.3175 37.7606 35.2749 37.7606 36.0418C37.7607 39.1192 37.7607 39.1308 37.7594 39.1421C37.7591 39.1445 37.7588 39.1468 37.7585 39.1754C37.6527 42.6579 34.8863 45.0473 31.8123 45.0473C28.1908 45.0473 25.6626 42.2574 25.6626 39.0995ZM34.7362 47.5227V46.5448C32.7997 47.3069 30.6405 47.2407 28.8546 46.5945V47.4885C28.8546 48.2821 28.3815 49.0554 27.5211 49.3887C29.7989 51.8015 33.5127 51.9254 35.9475 49.3395C35.2211 49.0357 34.7362 48.3125 34.7362 47.5227Z" fill="#0F4C81"/>
<path d="M32.1497 6.66183V9.67819C32.1497 10.2448 32.6085 10.7036 33.1751 10.7036C33.7417 10.7036 34.2005 10.2448 34.2005 9.67819V7.68723H34.7757C35.8657 7.68723 36.5413 6.5657 35.9944 5.67223L32.9294 0.664368C32.3884 -0.220565 31.0351 -0.222168 30.4925 0.663834L27.4281 5.67223C26.8807 6.56677 27.5584 7.68723 28.6463 7.68723H29.2215V16.8677C29.2215 18.2402 30.3387 19.3569 31.7112 19.3569C33.0838 19.3569 34.2005 18.2402 34.2005 16.8677V14.4639C34.2005 13.8978 33.7417 13.4385 33.1751 13.4385C32.6085 13.4385 32.1497 13.8978 32.1497 14.4639V16.8677C32.1497 17.1096 31.9532 17.3061 31.7112 17.3061C31.4693 17.3061 31.2728 17.1096 31.2728 16.8677V6.66183C31.2728 6.0952 30.8135 5.63644 30.2474 5.63644H29.8543L31.7112 2.60193L33.5676 5.63644H33.1751C32.6085 5.63644 32.1497 6.0952 32.1497 6.66183Z" fill="#0F4C81"/>
</svg>
