<svg width="72" height="70" viewBox="0 0 72 70" fill="none" xmlns="http://www.w3.org/2000/svg">
<path d="M23.3298 48.1213C26.2584 52.2505 29.1823 55.9435 31.12 58.3221C31.4021 58.6683 31.6664 58.9894 31.9224 59.2987H26.0748C25.4202 59.2987 24.8896 59.8292 24.8896 60.4838C24.8896 61.1384 25.4202 61.6689 26.0748 61.6689H45.0375C45.6921 61.6689 46.2227 61.1384 46.2227 60.4838C46.2227 59.8292 45.6921 59.2987 45.0375 59.2987H39.1899C39.4459 58.9894 39.7102 58.6681 39.9935 58.3221C41.93 55.9517 44.8528 52.2505 47.7825 48.1213C50.6894 44.1067 53.3057 39.8898 55.6119 35.5027C58.032 30.7501 59.2599 26.8046 59.2599 23.7753C59.268 17.4808 56.7702 11.4419 52.3182 6.99187C52.0209 6.68353 51.5803 6.55965 51.1659 6.66784C50.7514 6.77603 50.4275 7.09937 50.3188 7.51367C50.21 7.92798 50.3332 8.36867 50.6412 8.66645C54.6484 12.6726 56.8966 18.1088 56.8895 23.7752C56.8895 26.4277 55.7494 30.0116 53.4999 34.4265C51.2459 38.7119 48.6888 42.831 45.8484 46.7524C42.9589 50.8283 40.0706 54.4798 38.1566 56.8265C37.5202 57.6063 36.9477 58.296 36.4594 58.8792C36.2314 59.1395 35.9023 59.2887 35.5563 59.2887C35.2103 59.2887 34.8812 59.1394 34.6532 58.8792C34.1649 58.2962 33.5925 57.6063 32.956 56.8265C31.042 54.481 28.1537 50.8294 25.2642 46.7524C22.4238 42.831 19.8667 38.7119 17.6127 34.4265C15.3609 30.0116 14.2231 26.4277 14.2231 23.7752C14.2224 15.1906 19.3563 7.43812 27.2602 4.08812C32.571 1.86117 38.5538 1.86117 43.8646 4.08812C44.2546 4.2534 44.7031 4.19826 45.0413 3.94312C45.3795 3.68812 45.5559 3.27201 45.5041 2.85159C45.4523 2.43117 45.1802 2.07034 44.7902 1.90506C32.721 -3.18549 18.8102 2.46923 13.7159 14.5367C12.4805 17.4598 11.8469 20.6019 11.8528 23.7752C11.8528 26.8045 13.0807 30.7501 15.5009 35.5085C17.8067 39.8937 20.4232 44.1087 23.3298 48.1213Z" fill="#0F4C81"/>
<path d="M35.5559 13.0763C36.2105 13.0763 36.741 12.5458 36.741 11.8912C36.741 11.2366 36.2105 10.7061 35.5559 10.7061C29.9017 10.7059 25.0348 14.7001 23.9316 20.2456C22.8284 25.7912 25.7963 31.3437 31.0201 33.5076C36.2438 35.6715 42.2687 33.8438 45.4101 29.1426C48.5514 24.4413 47.9344 18.1756 43.9363 14.1774C43.6387 13.8694 43.1981 13.7458 42.7837 13.8542C42.3694 13.9627 42.0457 14.2863 41.9373 14.7006C41.8288 15.1151 41.9524 15.5556 42.2605 15.8533C45.4591 19.0517 45.9528 24.0641 43.4399 27.8252C40.927 31.5863 36.1071 33.0486 31.9281 31.3177C27.7491 29.5869 25.3746 25.1449 26.2569 20.7084C27.1391 16.2719 31.0326 13.0765 35.5559 13.0763Z" fill="#0F4C81"/>
<path d="M70.6647 64.7165L63.3758 51.6794C62.7168 50.5211 61.4836 49.8091 60.1509 49.8175H51.7041C51.0495 49.8175 50.519 50.348 50.519 51.0026C50.519 51.6572 51.0495 52.1877 51.7041 52.1877H60.1509C60.6254 52.1786 61.068 52.4259 61.3088 52.8348L68.5954 65.8719C68.7938 66.2111 68.7897 66.6318 68.5847 66.967C68.3426 67.367 67.9048 67.6066 67.4375 67.5952H3.67454C3.20759 67.6063 2.77037 67.3666 2.52842 66.967C2.32342 66.6318 2.3194 66.2111 2.51773 65.8719L9.80426 52.8348C10.0447 52.4261 10.4869 52.1787 10.9609 52.1877H19.4077C20.0623 52.1877 20.5929 51.6572 20.5929 51.0026C20.5929 50.348 20.0623 49.8175 19.4077 49.8175H10.9611C9.62773 49.8087 8.39356 50.5207 7.73384 51.6794L0.446064 64.7165C-0.161575 65.7898 -0.147547 67.1065 0.482869 68.1666C1.14704 69.2955 2.36495 69.982 3.67454 69.9658H67.4375C68.7466 69.9816 69.9641 69.2952 70.628 68.1666C71.2584 67.1064 71.2725 65.7898 70.6647 64.7165Z" fill="#0F4C81"/>
<path d="M58.0745 55.7432H53.3338C53.0997 55.7436 52.871 55.8127 52.676 55.9423L49.1204 58.3127C48.5759 58.6761 48.4289 59.4121 48.7921 59.9566C49.1554 60.5012 49.8914 60.6482 50.436 60.285L53.6893 58.1137H58.0745C58.729 58.1137 59.2596 57.583 59.2596 56.9286C59.2596 56.2737 58.729 55.7432 58.0745 55.7432Z" fill="#0F4C81"/>
<path d="M50.9634 64.0396C50.9634 64.6942 51.4939 65.2248 52.1485 65.2248H61.63C62.2846 65.2248 62.8152 64.6942 62.8152 64.0396C62.8152 63.385 62.2846 62.8545 61.63 62.8545H52.1485C51.4939 62.8545 50.9634 63.385 50.9634 64.0396Z" fill="#0F4C81"/>
<path d="M21.3337 60.484C21.8562 60.4847 22.3174 60.143 22.4692 59.643C22.621 59.143 22.4274 58.6026 21.9927 58.3127L18.4372 55.9423C18.2419 55.8126 18.0126 55.7433 17.7781 55.7432H13.0374C12.3829 55.7432 11.8523 56.2739 11.8523 56.9283C11.8523 57.5829 12.383 58.1134 13.0374 58.1134H17.4226L20.6795 60.2847C20.8733 60.4141 21.1009 60.4834 21.3337 60.484Z" fill="#0F4C81"/>
<path d="M9.48201 62.8545C8.82743 62.8545 8.29688 63.385 8.29688 64.0396C8.29688 64.6942 8.82743 65.2248 9.48201 65.2248H18.9635C19.6181 65.2248 20.1487 64.6942 20.1487 64.0396C20.1487 63.385 19.6181 62.8545 18.9635 62.8545H9.48201Z" fill="#0F4C81"/>
</svg>
