<svg width="125" height="27" viewBox="0 0 125 27" fill="none" xmlns="http://www.w3.org/2000/svg">
<path fill-rule="evenodd" clip-rule="evenodd" d="M81.1149 26.0001V0.100098H75.1299V26.0001H81.1149ZM63.8949 23.1651C62.4482 25.2184 60.5116 26.2451 58.0849 26.2451C55.6582 26.2451 53.5816 25.3118 51.8549 23.4451C50.1282 21.5784 49.2649 19.1868 49.2649 16.2701C49.2649 13.3534 50.1282 10.9559 51.8549 9.0776C53.5816 7.19926 55.6874 6.2601 58.1724 6.2601C60.6574 6.2601 62.5649 7.18176 63.8949 9.0251V6.4701H69.8799V26.0001H63.8949V23.1651ZM56.6499 19.8226C57.5132 20.6509 58.5049 21.0651 59.6249 21.0651C60.7449 21.0651 61.7366 20.6451 62.5999 19.8051C63.4632 18.9651 63.8949 17.7751 63.8949 16.2351C63.8949 14.6951 63.4632 13.5109 62.5999 12.6826C61.7366 11.8543 60.7449 11.4401 59.6249 11.4401C58.5049 11.4401 57.5132 11.8601 56.6499 12.7001C55.7866 13.5401 55.3549 14.7301 55.3549 16.2701C55.3549 17.8101 55.7866 18.9943 56.6499 19.8226ZM100.645 24.4426C98.9649 25.6443 96.9699 26.2451 94.6599 26.2451C91.8132 26.2451 89.4799 25.3293 87.6599 23.4976C85.8399 21.6659 84.9299 19.2334 84.9299 16.2001C84.9299 13.1668 85.8341 10.7518 87.6424 8.9551C89.4507 7.15843 91.7899 6.2601 94.6599 6.2601C97.5299 6.2601 99.9099 7.14676 101.8 8.9201C103.69 10.6934 104.635 13.1551 104.635 16.3051C104.635 16.9818 104.588 17.6118 104.495 18.1951H91.0549C91.1716 19.0584 91.5566 19.7643 92.2099 20.3126C92.8632 20.8609 93.5691 21.1351 94.3274 21.1351C95.0857 21.1351 95.6516 21.0593 96.0249 20.9076C96.3982 20.7559 96.6724 20.6043 96.8474 20.4526C97.0224 20.3009 97.2499 20.0501 97.5299 19.7001H104.005C103.445 21.6601 102.325 23.2409 100.645 24.4426ZM98.4049 14.4501H91.0899C91.2532 13.5401 91.6616 12.7993 92.3149 12.2276C92.9682 11.6559 93.7732 11.3701 94.7299 11.3701C95.6866 11.3701 96.5149 11.6559 97.2149 12.2276C97.9149 12.7993 98.3116 13.5401 98.4049 14.4501ZM115.065 20.9251L111.915 26.0001H106L112.335 16.5501L106 6.4701H112.72L115.905 11.5451L119.055 6.4701H124.97L118.67 15.9201L124.97 26.0001H118.25L115.065 20.9251Z" fill="white"/>
<path fill-rule="evenodd" clip-rule="evenodd" d="M0 26H8.6665L16 9.49589L12.025 0L0 26Z" fill="white"/>
<path fill-rule="evenodd" clip-rule="evenodd" d="M24.0426 26L20 16.5676L27.3997 0H36L48 26H39.3335L31.6995 9.35089L24.0426 26Z" fill="white"/>
</svg>
